<?xml version="1.0" encoding="UTF-8"?>
<svg width="700pt" height="700pt" version="1.1" viewBox="0 0 700 700" xmlns="http://www.w3.org/2000/svg" xmlns:xlink="http://www.w3.org/1999/xlink">
 <defs>
  <symbol id="v" overflow="visible">
   <path d="m12.516-0.75c-0.64844 0.33594-1.3203 0.58594-2.0156 0.75-0.69922 0.17578-1.4297 0.26562-2.1875 0.26562-2.2734 0-4.0703-0.62891-5.3906-1.8906-1.3242-1.2695-1.9844-2.9922-1.9844-5.1719 0-2.1758 0.66016-3.8945 1.9844-5.1562 1.3203-1.2695 3.1172-1.9062 5.3906-1.9062 0.75781 0 1.4883 0.089844 2.1875 0.26562 0.69531 0.16797 1.3672 0.41797 2.0156 0.75v2.8125c-0.65625-0.4375-1.3047-0.75781-1.9375-0.96875-0.625-0.20703-1.2891-0.3125-1.9844-0.3125-1.2617 0-2.25 0.40234-2.9688 1.2031-0.71094 0.80469-1.0625 1.9062-1.0625 3.3125s0.35156 2.5117 1.0625 3.3125c0.71875 0.80469 1.707 1.2031 2.9688 1.2031 0.69531 0 1.3594-0.10156 1.9844-0.3125 0.63281-0.20703 1.2812-0.53125 1.9375-0.96875z"/>
  </symbol>
  <symbol id="d" overflow="visible">
   <path d="m9.1562-7.4375c-0.29297-0.125-0.57812-0.21875-0.85938-0.28125-0.28125-0.070312-0.5625-0.10938-0.84375-0.10938-0.84375 0-1.4961 0.27344-1.9531 0.8125-0.44922 0.54297-0.67188 1.3125-0.67188 2.3125v4.7031h-3.2656v-10.219h3.2656v1.6875c0.42578-0.66406 0.91016-1.1484 1.4531-1.4531 0.53906-0.3125 1.1914-0.46875 1.9531-0.46875 0.10156 0 0.21875 0.007813 0.34375 0.015625 0.13281 0 0.32031 0.015625 0.5625 0.046875z"/>
  </symbol>
  <symbol id="b" overflow="visible">
   <path d="m11.766-5.1406v0.9375h-7.6406c0.082031 0.77344 0.35938 1.3516 0.82812 1.7344 0.47656 0.375 1.1445 0.5625 2 0.5625 0.6875 0 1.3906-0.097656 2.1094-0.29688 0.71875-0.20703 1.457-0.51953 2.2188-0.9375v2.5156c-0.77344 0.29297-1.5469 0.51172-2.3281 0.65625-0.77344 0.15625-1.543 0.23438-2.3125 0.23438-1.8438 0-3.2812-0.46875-4.3125-1.4062-1.0234-0.9375-1.5312-2.2539-1.5312-3.9531 0-1.6641 0.5-2.9727 1.5-3.9219 1.0078-0.95703 2.3984-1.4375 4.1719-1.4375 1.6016 0 2.8828 0.48438 3.8438 1.4531 0.96875 0.96094 1.4531 2.2461 1.4531 3.8594zm-3.3594-1.0781c0-0.61328-0.18359-1.1094-0.54688-1.4844-0.35547-0.38281-0.82422-0.57812-1.4062-0.57812-0.63672 0-1.1523 0.17969-1.5469 0.53125-0.39844 0.35547-0.64062 0.86719-0.73438 1.5312z"/>
  </symbol>
  <symbol id="a" overflow="visible">
   <path d="m6.1406-4.5938c-0.67969 0-1.1875 0.11719-1.5312 0.34375-0.34375 0.23047-0.51562 0.57031-0.51562 1.0156 0 0.41797 0.13281 0.74609 0.40625 0.98438 0.28125 0.23047 0.66406 0.34375 1.1562 0.34375 0.61328 0 1.1289-0.21875 1.5469-0.65625 0.42578-0.44531 0.64062-1 0.64062-1.6562v-0.375zm4.9844-1.2344v5.8281h-3.2812v-1.5156c-0.4375 0.625-0.93359 1.0781-1.4844 1.3594-0.54297 0.28125-1.2109 0.42188-2 0.42188-1.0547 0-1.9141-0.30469-2.5781-0.92188-0.65625-0.625-0.98438-1.4258-0.98438-2.4062 0-1.1953 0.41016-2.0703 1.2344-2.625 0.82031-0.5625 2.1172-0.84375 3.8906-0.84375h1.9219v-0.26562c0-0.50781-0.20312-0.88281-0.60938-1.125-0.40625-0.23828-1.043-0.35938-1.9062-0.35938-0.69922 0-1.3516 0.070312-1.9531 0.20312-0.60547 0.13672-1.1641 0.34375-1.6719 0.625v-2.4844c0.69531-0.16406 1.3945-0.28906 2.0938-0.375 0.70703-0.09375 1.4141-0.14062 2.125-0.14062 1.832 0 3.1562 0.36719 3.9688 1.0938 0.82031 0.71875 1.2344 1.8984 1.2344 3.5312z"/>
  </symbol>
  <symbol id="c" overflow="visible">
   <path d="m5.1406-13.109v2.8906h3.3594v2.3438h-3.3594v4.3281c0 0.48047 0.09375 0.80469 0.28125 0.96875 0.1875 0.16797 0.55469 0.25 1.1094 0.25h1.6875v2.3281h-2.7969c-1.293 0-2.2109-0.26562-2.75-0.79688-0.53125-0.53906-0.79688-1.457-0.79688-2.75v-4.3281h-1.625v-2.3438h1.625v-2.8906z"/>
  </symbol>
  <symbol id="k" overflow="visible">
   <path d="m8.5156-8.7188v-5.4688h3.2812v14.188h-3.2812v-1.4844c-0.44922 0.60547-0.94531 1.0469-1.4844 1.3281-0.54297 0.28125-1.168 0.42188-1.875 0.42188-1.2617 0-2.2969-0.5-3.1094-1.5-0.80469-1-1.2031-2.2852-1.2031-3.8594 0-1.5703 0.39844-2.8594 1.2031-3.8594 0.8125-1 1.8477-1.5 3.1094-1.5 0.69531 0 1.3164 0.14062 1.8594 0.42188 0.55078 0.28125 1.0508 0.71875 1.5 1.3125zm-2.1562 6.6094c0.69531 0 1.2266-0.25391 1.5938-0.76562 0.375-0.50781 0.5625-1.25 0.5625-2.2188 0-0.97656-0.1875-1.7227-0.5625-2.2344-0.36719-0.50781-0.89844-0.76562-1.5938-0.76562-0.6875 0-1.2188 0.25781-1.5938 0.76562-0.36719 0.51172-0.54688 1.2578-0.54688 2.2344 0 0.96875 0.17969 1.7109 0.54688 2.2188 0.375 0.51172 0.90625 0.76562 1.5938 0.76562z"/>
  </symbol>
  <symbol id="f" overflow="visible">
   <path d="m7-2.1094c0.69531 0 1.2266-0.25391 1.5938-0.76562 0.375-0.50781 0.5625-1.25 0.5625-2.2188 0-0.97656-0.1875-1.7227-0.5625-2.2344-0.36719-0.50781-0.89844-0.76562-1.5938-0.76562-0.69922 0-1.2344 0.26172-1.6094 0.78125-0.375 0.51172-0.5625 1.25-0.5625 2.2188s0.1875 1.7109 0.5625 2.2188c0.375 0.51172 0.91016 0.76562 1.6094 0.76562zm-2.1719-6.6094c0.44531-0.59375 0.94141-1.0312 1.4844-1.3125 0.55078-0.28125 1.1875-0.42188 1.9062-0.42188 1.2578 0 2.2891 0.5 3.0938 1.5 0.8125 1 1.2188 2.2891 1.2188 3.8594 0 1.5742-0.40625 2.8594-1.2188 3.8594-0.80469 1-1.8359 1.5-3.0938 1.5-0.71875 0-1.3555-0.14062-1.9062-0.42188-0.54297-0.28125-1.0391-0.72266-1.4844-1.3281v1.4844h-3.2656v-14.188h3.2656z"/>
  </symbol>
  <symbol id="j" overflow="visible">
   <path d="m0.23438-10.219h3.25l2.75 6.9375 2.3281-6.9375h3.2656l-4.2812 11.188c-0.4375 1.1328-0.94531 1.9258-1.5156 2.375-0.57422 0.45703-1.3359 0.6875-2.2812 0.6875h-1.875v-2.1406h1.0156c0.55078 0 0.95312-0.089844 1.2031-0.26562 0.25-0.17969 0.44531-0.49609 0.59375-0.95312l0.09375-0.28125z"/>
  </symbol>
  <symbol id="i" overflow="visible">
   <path d="m1.7188-13.609h3.5v5.1875h5.1875v-5.1875h3.5v13.609h-3.5v-5.7656h-5.1875v5.7656h-3.5z"/>
  </symbol>
  <symbol id="h" overflow="visible">
   <path d="m11.031-8.5156c0.41406-0.63281 0.90625-1.1133 1.4688-1.4375 0.57031-0.33203 1.1953-0.5 1.875-0.5 1.1758 0 2.0703 0.36719 2.6875 1.0938 0.61328 0.71875 0.92188 1.7656 0.92188 3.1406v6.2188h-3.2812v-5.3281-0.23438c0.007813-0.09375 0.015625-0.21875 0.015625-0.375 0-0.71875-0.10938-1.2383-0.32812-1.5625-0.21094-0.33203-0.55469-0.5-1.0312-0.5-0.61719 0-1.0938 0.25781-1.4375 0.76562-0.33594 0.51172-0.50781 1.25-0.51562 2.2188v5.0156h-3.2812v-5.3281c0-1.125-0.10156-1.8477-0.29688-2.1719-0.1875-0.33203-0.53125-0.5-1.0312-0.5-0.625 0-1.1094 0.26172-1.4531 0.78125-0.34375 0.51172-0.51562 1.2422-0.51562 2.1875v5.0312h-3.2812v-10.219h3.2812v1.5c0.40625-0.57031 0.86719-1.0039 1.3906-1.2969 0.51953-0.28906 1.0938-0.4375 1.7188-0.4375 0.69531 0 1.3164 0.17188 1.8594 0.51562 0.53906 0.33594 0.95312 0.80859 1.2344 1.4219z"/>
  </symbol>
  <symbol id="u" overflow="visible">
   <path d="m1.0625-10.219h8.9062v2.2812l-5.375 5.6094h5.375v2.3281h-9.125v-2.2812l5.375-5.5938h-5.1562z"/>
  </symbol>
  <symbol id="t" overflow="visible">
   <path d="m0.5625-13.609h3.3594l2.3438 9.8906 2.3438-9.8906h3.375l2.3438 9.8906 2.3438-9.8906h3.3438l-3.2188 13.609h-4.0469l-2.4688-10.344-2.4375 10.344h-4.0469z"/>
  </symbol>
  <symbol id="g" overflow="visible">
   <path d="m11.828-6.2188v6.2188h-3.2812v-4.7344c0-0.89453-0.023437-1.5078-0.0625-1.8438-0.03125-0.33203-0.10156-0.58203-0.20312-0.75-0.125-0.20703-0.29688-0.36719-0.51562-0.48438-0.21875-0.125-0.46875-0.1875-0.75-0.1875-0.67969 0-1.2148 0.26562-1.6094 0.79688-0.38672 0.52344-0.57812 1.2461-0.57812 2.1719v5.0312h-3.2656v-14.188h3.2656v5.4688c0.5-0.59375 1.0234-1.0312 1.5781-1.3125 0.55078-0.28125 1.1602-0.42188 1.8281-0.42188 1.1758 0 2.0664 0.36719 2.6719 1.0938 0.61328 0.71875 0.92188 1.7656 0.92188 3.1406z"/>
  </symbol>
  <symbol id="s" overflow="visible">
   <path d="m1.5625-10.219h3.2656v10.219h-3.2656zm0-3.9688h3.2656v2.6562h-3.2656z"/>
  </symbol>
  <symbol id="r" overflow="visible">
   <path d="m8.2812-14.188v2.1406h-1.7969c-0.46094 0-0.78125 0.085937-0.96875 0.25-0.17969 0.16797-0.26562 0.46094-0.26562 0.875v0.70312h2.7812v2.3438h-2.7812v7.875h-3.2656v-7.875h-1.625v-2.3438h1.625v-0.70312c0-1.1133 0.30469-1.9375 0.92188-2.4688 0.625-0.53125 1.5859-0.79688 2.8906-0.79688z"/>
  </symbol>
  <symbol id="e" overflow="visible">
   <path d="m6.4219-8.125c-0.71875 0-1.2734 0.26172-1.6562 0.78125-0.375 0.52344-0.5625 1.2734-0.5625 2.25 0 0.98047 0.1875 1.7305 0.5625 2.25 0.38281 0.52344 0.9375 0.78125 1.6562 0.78125s1.2656-0.25781 1.6406-0.78125c0.375-0.51953 0.5625-1.2695 0.5625-2.25 0-0.97656-0.1875-1.7266-0.5625-2.25-0.375-0.51953-0.92188-0.78125-1.6406-0.78125zm0-2.3281c1.7578 0 3.1328 0.47656 4.125 1.4219 0.98828 0.94922 1.4844 2.2617 1.4844 3.9375 0 1.6797-0.49609 2.9922-1.4844 3.9375-0.99219 0.94922-2.3672 1.4219-4.125 1.4219-1.7617 0-3.1406-0.47266-4.1406-1.4219-0.99219-0.94531-1.4844-2.2578-1.4844-3.9375 0-1.6758 0.49219-2.9883 1.4844-3.9375 1-0.94531 2.3789-1.4219 4.1406-1.4219z"/>
  </symbol>
  <symbol id="q" overflow="visible">
   <path d="m1.7188-13.609h3.9219l4.9375 9.3281v-9.3281h3.3281v13.609h-3.9062l-4.9531-9.3438v9.3438h-3.3281z"/>
  </symbol>
  <symbol id="p" overflow="visible">
   <path d="m1.4531-3.9688v-6.25h3.2812v1.0312c0 0.55469-0.007813 1.2461-0.015625 2.0781v1.6719c0 0.82422 0.019531 1.418 0.0625 1.7812 0.039062 0.35547 0.11328 0.61719 0.21875 0.78125 0.13281 0.21875 0.3125 0.38672 0.53125 0.5 0.21875 0.11719 0.46094 0.17188 0.73438 0.17188 0.6875 0 1.2227-0.25781 1.6094-0.78125 0.38281-0.53125 0.57812-1.2578 0.57812-2.1875v-5.0469h3.2656v10.219h-3.2656v-1.4844c-0.49219 0.60547-1.0117 1.0469-1.5625 1.3281-0.54297 0.28125-1.1484 0.42188-1.8125 0.42188-1.1797 0-2.0781-0.35938-2.7031-1.0781-0.61719-0.72656-0.92188-1.7812-0.92188-3.1562z"/>
  </symbol>
  <symbol id="o" overflow="visible">
   <path d="m11.828-6.2188v6.2188h-3.2812v-4.7656c0-0.875-0.023437-1.4766-0.0625-1.8125-0.03125-0.33203-0.10156-0.58203-0.20312-0.75-0.125-0.20703-0.29688-0.36719-0.51562-0.48438-0.21875-0.125-0.46875-0.1875-0.75-0.1875-0.67969 0-1.2148 0.26562-1.6094 0.79688-0.38672 0.52344-0.57812 1.2461-0.57812 2.1719v5.0312h-3.2656v-10.219h3.2656v1.5c0.5-0.59375 1.0234-1.0312 1.5781-1.3125 0.55078-0.28125 1.1602-0.42188 1.8281-0.42188 1.1758 0 2.0664 0.36719 2.6719 1.0938 0.61328 0.71875 0.92188 1.7656 0.92188 3.1406z"/>
  </symbol>
  <symbol id="n" overflow="visible">
   <path d="m1.7188-13.609h5.8281c1.7266 0 3.0547 0.38672 3.9844 1.1562 0.92578 0.76172 1.3906 1.8555 1.3906 3.2812 0 1.4297-0.46484 2.5273-1.3906 3.2969-0.92969 0.77344-2.2578 1.1562-3.9844 1.1562h-2.3281v4.7188h-3.5zm3.5 2.5469v3.7969h1.9531c0.67578 0 1.1953-0.16406 1.5625-0.5 0.375-0.33203 0.5625-0.80078 0.5625-1.4062 0-0.60156-0.1875-1.0664-0.5625-1.3906-0.36719-0.33203-0.88672-0.5-1.5625-0.5z"/>
  </symbol>
  <symbol id="m" overflow="visible">
   <path d="m1.5625-10.219h3.2656v10.031c0 1.375-0.32812 2.4219-0.98438 3.1406s-1.6055 1.0781-2.8438 1.0781h-1.625v-2.1406h0.5625c0.625 0 1.0508-0.14062 1.2812-0.42188 0.22656-0.28125 0.34375-0.83594 0.34375-1.6562zm0-3.9688h3.2656v2.6562h-3.2656z"/>
  </symbol>
  <symbol id="l" overflow="visible">
   <path d="m9.8125-9.8906v2.6562c-0.4375-0.30078-0.88281-0.52344-1.3281-0.67188-0.44922-0.14453-0.91406-0.21875-1.3906-0.21875-0.91797 0-1.6328 0.26562-2.1406 0.79688-0.5 0.53125-0.75 1.2773-0.75 2.2344 0 0.94922 0.25 1.6953 0.75 2.2344 0.50781 0.53125 1.2227 0.79688 2.1406 0.79688 0.50781 0 0.99219-0.078125 1.4531-0.23438 0.45703-0.15625 0.87891-0.37891 1.2656-0.67188v2.6719c-0.51172 0.1875-1.0312 0.32812-1.5625 0.42188-0.52344 0.09375-1.043 0.14062-1.5625 0.14062-1.8438 0-3.2891-0.47266-4.3281-1.4219-1.043-0.94531-1.5625-2.2578-1.5625-3.9375 0-1.6875 0.51953-3 1.5625-3.9375 1.0391-0.94531 2.4844-1.4219 4.3281-1.4219 0.53125 0 1.0547 0.046875 1.5781 0.14062 0.51953 0.09375 1.0352 0.23438 1.5469 0.42188z"/>
  </symbol>
 </defs>
 <g>
  <path d="m473.2 178.83v-54.883c0-45.547-51.145-82.879-113.87-82.879-62.719 0-113.87 37.332-113.87 82.879v54.879c-60.105 2.6133-107.89 38.828-108.27 82.879v0.74609 137.39c0 45.922 51.52 83.254 114.61 83.254 49.281 0 91.094-22.773 107.52-54.133 16.055 31.734 58.238 54.133 107.52 54.133 63.094 0 114.61-37.332 114.61-83.254v-137.38c0-44.426-47.785-81.012-108.27-83.625zm-114.61-122.83c55.254 0 100.05 30.238 100.05 67.945 0 37.332-44.801 67.945-100.05 67.945-55.254 0-100.05-30.238-100.05-67.945 0.003906-37.332 44.801-67.945 100.05-67.945zm-8.5859 207.2v1.4922c0 0.74609 0 1.4922-0.375 2.2383 0 1.1211-0.375 2.2383-0.74609 3.3594 0 0.74609-0.375 1.4922-0.74609 2.2383v0.74609c0 0.74609-0.375 1.4922-0.74609 2.2383-0.375 0.74609-0.375 1.4922-0.74609 2.2383-0.375 0.74609-0.74609 1.4922-1.1211 2.2383-0.375 0.74609-0.375 1.1211-0.74609 1.8672-1.1211 2.6133-2.6133 4.8516-4.4805 7.4648-0.375 0.375-0.74609 0.74609-0.74609 1.1211-0.375 0.38672-0.74609 0.75781-0.74609 1.1328-0.375 0.74609-0.74609 1.1211-1.4922 1.8672-1.8672 2.6133-4.1055 4.8516-6.7188 7.0938l-1.8672 1.8672c-1.4922 1.4922-3.3594 2.6133-4.8516 3.7344-1.1211 0.74609-1.8672 1.4922-2.9883 2.2383-1.1211 0.74609-2.2383 1.4922-3.3594 2.2383-2.2383 1.4922-4.8516 2.9883-7.4648 4.1055-1.1211 0.74609-2.2383 1.1211-3.7344 1.8672-0.74609 0.375-1.8672 0.74609-2.6133 1.1211-0.375 0-0.375 0.375-0.74609 0.375-1.1211 0.375-1.8672 0.74609-2.9883 1.1211-0.375 0.375-1.1211 0.375-1.4922 0.74609-0.375 0-0.375 0-0.74609 0.375-0.74609 0.375-1.8672 0.74609-2.9883 1.1211-0.375 0-0.375 0-0.74609 0.375-1.4922 0.375-2.9883 0.74609-4.1055 1.4922-0.74609 0-1.1211 0.375-1.8672 0.375-0.74609 0.375-1.4922 0.375-2.6133 0.74609-0.375 0-0.74609 0.375-1.1211 0.375h-0.375c-1.1211 0.375-1.8672 0.375-2.9883 0.74609h-0.74609c-1.4922 0.375-2.6133 0.74609-4.1055 0.74609-1.4922 0-2.6133 0.375-4.1055 0.74609-1.1211 0-1.8672 0.375-2.9883 0.375-2.2383 0.375-4.4805 0.74609-6.7188 0.74609-1.1211 0-1.8672 0-2.9883 0.375-1.4922 0-2.9883 0-4.4805 0.375h-4.4805c-55.254 0-100.05-30.613-100.05-67.945 0-35.84 41.066-64.961 92.961-67.574h7.0938 7.0938c51.895 2.6133 92.961 31.734 92.961 67.574 0-0.011718-0.375 1.1055-0.375 2.2266zm115.73 66.453h-4.4805-2.2383-2.6133c-1.1211 0-2.2383 0-2.9883-0.375-1.4922 0-2.6133-0.375-3.7344-0.375-0.74609 0-1.8672-0.375-2.6133-0.375-1.1211 0-1.8672-0.375-2.9883-0.375-1.4922 0-2.9883-0.375-4.1055-0.74609-1.1211-0.375-2.6133-0.375-4.1055-0.74609h-0.74609c-0.74609 0-1.4922-0.375-2.2383-0.375-0.375 0-0.375 0-0.74609-0.375-3.3594-0.74609-6.7188-1.8672-10.078-2.9883-0.375 0-0.375 0-0.74609-0.375-0.74609-0.375-1.8672-0.74609-2.6133-0.74609h-0.375c-1.4922-0.375-2.9883-1.1211-4.1055-1.4922-0.74609-0.375-1.1211-0.375-1.8672-0.74609 0 0-0.375 0-0.74609-0.375-0.74609-0.375-1.4922-0.375-1.8672-0.74609-2.6133-1.1211-5.2266-2.6133-7.8398-3.7344-1.1211-0.74609-2.2383-1.1211-3.3594-1.8672-4.4805-2.6133-8.5859-5.6016-12.32-8.9609-0.375-0.375-0.74609-0.74609-1.1211-0.74609-2.2383-2.2383-4.8516-4.4805-6.7188-7.0938-0.375-0.74609-1.1211-1.1211-1.4922-1.8672-0.74609-0.74609-1.1211-1.4922-1.8672-2.6133-1.4922-2.2383-2.9883-4.8516-4.1055-7.4648-0.375-0.74609-0.74609-1.1211-0.74609-1.8672-0.375-0.74609-0.74609-1.4922-1.1211-2.2383-0.375-0.74609-0.375-1.4922-0.74609-2.2383-0.375-0.74609-0.375-1.4922-0.74609-2.2383-0.375-1.8672-1.1211-3.7344-1.1211-5.6016v-1.1211c0-0.74609-0.375-1.4922-0.375-2.2383v-1.4922-2.9883c0-35.84 41.066-64.961 92.961-67.574h7.0938 7.0938c51.895 2.6133 92.961 31.734 92.961 67.574-0.38281 37.344-45.18 67.582-100.43 67.582z"/>
  <path d="m383.6 123.95c0 14.641-11.199 26.508-25.016 26.508-13.812 0-25.012-11.867-25.012-26.508 0-14.637 11.199-26.504 25.012-26.504 13.816 0 25.016 11.867 25.016 26.504"/>
  <path d="m276.45 261.71c0 14.641-11.199 26.508-25.012 26.508-13.816 0-25.016-11.867-25.016-26.508s11.199-26.508 25.016-26.508c13.812 0 25.012 11.867 25.012 26.508"/>
  <path d="m490.75 261.71c0 14.641-11.199 26.508-25.012 26.508-13.816 0-25.016-11.867-25.016-26.508s11.199-26.508 25.016-26.508c13.812 0 25.012 11.867 25.012 26.508"/>
  
 </g>
</svg>
